#N canvas 405 151 262 419 10;
#X obj 6 384 dac~;
#X obj 7 28 loadbang;
#X obj 82 28 r freq;
#X obj 7 97 phasor~;
#X msg 7 51 220;
#X obj 7 73 line~;
#X obj 10 160 *~ 0.125;
#X obj 7 125 *~;
#X msg 155 110 \$1 100;
#X obj 113 142 line~;
#X obj 154 27 r sound;
#X msg 154 55 \$1 1;
#X floatatom 177 83 5 0 0 0 - - -, f 5;
#X obj 154 82 tgl 15 0 empty empty empty 17 7 0 10 -262144 -1 -1 0
1;
#X obj 192 55 loadbang;
#X obj 62 206 delwrite~ delayLeft 4000;
#X obj 62 185 delwrite~ delayRight 4000;
#X obj 144 279 sig~;
#X obj 109 279 sig~;
#X obj 54 310 vd~ delayLeft;
#X obj 144 310 vd~ delayRight;
#X msg 82 51 \$1 1000;
#X obj 107 229 loadbang;
#X msg 109 256 800;
#X msg 144 256 1600;
#X obj 144 335 *~ 0.5;
#X obj 53 335 *~ 0.5;
#X connect 1 0 4 0;
#X connect 2 0 21 0;
#X connect 3 0 7 0;
#X connect 4 0 5 0;
#X connect 5 0 3 0;
#X connect 6 0 0 0;
#X connect 6 0 0 1;
#X connect 6 0 16 0;
#X connect 6 0 15 0;
#X connect 7 0 6 0;
#X connect 8 0 9 0;
#X connect 9 0 7 1;
#X connect 10 0 11 0;
#X connect 11 0 13 0;
#X connect 13 0 8 0;
#X connect 14 0 13 0;
#X connect 17 0 20 0;
#X connect 18 0 19 0;
#X connect 19 0 26 0;
#X connect 20 0 25 0;
#X connect 21 0 5 0;
#X connect 22 0 23 0;
#X connect 22 0 24 0;
#X connect 23 0 18 0;
#X connect 24 0 17 0;
#X connect 25 0 0 1;
#X connect 26 0 0 0;
