#N canvas 289 266 370 343 10;
#X obj 5 217 dac~;
#X obj 7 28 loadbang;
#X msg 82 51 \$1 1000;
#X obj 82 28 r freq;
#X obj 7 97 phasor~;
#X msg 7 51 220;
#X obj 7 73 line~;
#X obj 8 155 *~ 0.125;
#X obj 7 125 *~;
#X msg 155 110 \$1 100;
#X obj 113 142 line~;
#X obj 154 27 r sound;
#X msg 154 55 \$1 1;
#X floatatom 177 83 5 0 0 0 - - -, f 5;
#X obj 154 82 tgl 15 0 empty empty empty 17 7 0 10 -262144 -1 -1 0
1;
#X obj 192 55 loadbang;
#X connect 1 0 5 0;
#X connect 2 0 6 0;
#X connect 3 0 2 0;
#X connect 4 0 8 0;
#X connect 5 0 6 0;
#X connect 6 0 4 0;
#X connect 7 0 0 0;
#X connect 7 0 0 1;
#X connect 8 0 7 0;
#X connect 9 0 10 0;
#X connect 10 0 8 1;
#X connect 11 0 12 0;
#X connect 12 0 14 0;
#X connect 14 0 9 0;
#X connect 15 0 14 0;
