#N canvas 204 76 612 592 10;
#X obj 3 548 dac~;
#X obj 7 28 loadbang;
#X obj 82 28 r freq;
#X obj 9 159 phasor~;
#X msg 7 51 220;
#X obj 6 73 line~;
#X obj 10 257 *~ 0.125;
#X obj 9 200 *~;
#X msg 155 110 \$1 100;
#X obj 113 239 line~;
#X obj 154 27 r sound;
#X msg 154 55 \$1 1;
#X floatatom 177 83 5 0 0 0 - - -, f 5;
#X obj 154 82 tgl 15 0 empty empty empty 17 7 0 10 -262144 -1 -1 1
1;
#X obj 192 55 loadbang;
#X obj 62 303 delwrite~ delayLeft 4000;
#X obj 62 282 delwrite~ delayRight 4000;
#X obj 144 376 sig~;
#X obj 109 376 sig~;
#X obj 54 407 vd~ delayLeft;
#X obj 144 407 vd~ delayRight;
#X msg 82 51 \$1 1000;
#X obj 107 326 loadbang;
#X obj 331 376 sig~;
#X obj 296 376 sig~;
#X obj 241 407 vd~ delayLeft;
#X obj 331 407 vd~ delayRight;
#X obj 294 326 loadbang;
#X msg 331 353 1600;
#X msg 109 353 800;
#X msg 296 353 1600;
#X msg 144 353 800;
#X obj 53 432 *~ 0.2;
#X obj 144 432 *~ 0.4;
#X obj 515 377 sig~;
#X obj 480 377 sig~;
#X obj 425 408 vd~ delayLeft;
#X obj 515 408 vd~ delayRight;
#X obj 478 327 loadbang;
#X msg 480 354 2400;
#X msg 515 354 2400;
#X obj 240 432 *~ 0.15;
#X obj 331 432 *~ 0.075;
#X obj 424 433 *~ 0.075;
#X obj 515 433 *~ 0.03725;
#X obj 264 127 phasor~;
#X obj 264 79 loadbang;
#X obj 264 178 +~ 0;
#X obj 262 204 *~ 1.2;
#X msg 264 102 1;
#X connect 1 0 4 0;
#X connect 2 0 21 0;
#X connect 3 0 7 0;
#X connect 4 0 5 0;
#X connect 5 0 3 0;
#X connect 6 0 0 0;
#X connect 6 0 0 1;
#X connect 6 0 16 0;
#X connect 6 0 15 0;
#X connect 7 0 6 0;
#X connect 8 0 9 0;
#X connect 9 0 7 1;
#X connect 10 0 11 0;
#X connect 11 0 13 0;
#X connect 13 0 8 0;
#X connect 14 0 13 0;
#X connect 17 0 20 0;
#X connect 18 0 19 0;
#X connect 19 0 32 0;
#X connect 20 0 33 0;
#X connect 21 0 5 0;
#X connect 22 0 29 0;
#X connect 22 0 31 0;
#X connect 23 0 26 0;
#X connect 24 0 25 0;
#X connect 25 0 41 0;
#X connect 26 0 42 0;
#X connect 27 0 30 0;
#X connect 27 0 28 0;
#X connect 28 0 23 0;
#X connect 29 0 18 0;
#X connect 30 0 24 0;
#X connect 31 0 17 0;
#X connect 32 0 0 0;
#X connect 33 0 0 1;
#X connect 34 0 37 0;
#X connect 35 0 36 0;
#X connect 36 0 43 0;
#X connect 37 0 44 0;
#X connect 38 0 39 0;
#X connect 38 0 40 0;
#X connect 39 0 35 0;
#X connect 40 0 34 0;
#X connect 41 0 0 0;
#X connect 42 0 0 1;
#X connect 43 0 0 0;
#X connect 44 0 0 1;
#X connect 45 0 47 0;
#X connect 46 0 49 0;
#X connect 47 0 48 0;
#X connect 48 0 3 0;
#X connect 49 0 45 0;
