#N canvas 51 96 762 387 10;
#X obj 121 306 dac~;
#X obj 128 40 loadbang;
#X msg 199 70 \$1 1000;
#X obj 199 40 r freq;
#X obj 126 191 phasor~;
#X obj 120 255 *~ 0.3;
#X msg 129 89 220;
#X obj 127 139 line~;
#X connect 1 0 6 0;
#X connect 2 0 7 0;
#X connect 3 0 2 0;
#X connect 4 0 5 0;
#X connect 5 0 0 0;
#X connect 5 0 0 1;
#X connect 6 0 7 0;
#X connect 7 0 4 0;
