#N canvas 0 23 233 191 10;
#X obj 7 144 dac~;
#X obj 7 28 loadbang;
#X msg 82 51 \$1 1000;
#X obj 82 28 r freq;
#X obj 7 97 phasor~;
#X msg 7 51 220;
#X obj 7 73 line~;
#X obj 7 119 *~ 0.125;
#X connect 1 0 5 0;
#X connect 2 0 6 0;
#X connect 3 0 2 0;
#X connect 4 0 7 0;
#X connect 5 0 6 0;
#X connect 6 0 4 0;
#X connect 7 0 0 0;
#X connect 7 0 0 1;
