#N canvas 75 23 1030 680 10;
#X obj 34 41 tgl 15 0 empty empty empty 17 7 0 10 -262144 -1 -1 1 1
;
#X floatatom 85 41 5 0 0 0 - - -, f 5;
#X obj 34 95 float;
#X obj 91 95 + 1;
#X floatatom 34 123 5 0 0 0 - - -, f 5;
#X obj 34 148 mod 4;
#X obj 34 175 hradio 15 1 0 8 empty empty empty 0 -8 0 10 -262144 -1
-1 0;
#X obj 34 200 select 0 1 2 3;
#X obj 110 365 float;
#X obj 72 365 float;
#X obj 148 365 float;
#X obj 34 365 float;
#X obj 61 227 vsl 15 128 0 127 0 0 empty empty empty 0 -9 0 10 -262144
-1 -1 5100 1;
#X obj 99 227 vsl 15 128 0 127 0 0 empty empty empty 0 -9 0 10 -262144
-1 -1 6100 1;
#X obj 137 227 vsl 15 128 0 127 0 0 empty empty empty 0 -9 0 10 -262144
-1 -1 3900 1;
#X obj 175 227 vsl 15 128 0 127 0 0 empty empty empty 0 -9 0 10 -262144
-1 -1 4500 1;
#X obj 35 404 mtof;
#X obj 35 554 dac~;
#X obj 35 465 phasor~;
#X obj 34 69 metro 300;
#X obj 35 433 line~;
#X obj 114 432 line~;
#X floatatom 153 406 5 0 0 0 - - -, f 5;
#X msg 210 451 \$1 100;
#X obj 210 372 r sound;
#X msg 210 399 \$1 1;
#X floatatom 233 427 5 0 0 0 - - -, f 5;
#X obj 210 426 tgl 15 0 empty empty empty 17 7 0 10 -262144 -1 -1 1
1;
#X obj 248 399 loadbang;
#X obj 210 479 line~;
#X obj 35 496 *~;
#X msg 114 404 0;
#X obj 377 198 noise~;
#X obj 468 201 line~;
#X obj 377 264 *~;
#X obj 368 414 dac~;
#X obj 376 387 *~ 0;
#X obj 428 362 hsl 128 15 0 1 0 0 empty empty Volume_0-1 -2 -6 0 8
-262144 -1 -1 6900 1;
#N canvas 0 22 450 300 (subpatch) 0;
#X array noise 5000 float 0;
#X coords 0 1 4999 -1 200 80 1;
#X restore 692 223 graph;
#N canvas 0 22 450 300 (subpatch) 0;
#X array line 5000 float 0;
#X coords 0 1 4999 -1 200 80 1;
#X restore 692 140 graph;
#X obj 558 132 bng 15 250 50 0 empty empty empty 0 -6 0 8 -241291 -1
-1;
#X obj 377 288 lop~ 400;
#X floatatom 504 259 5 0 0 0 - - -, f 5;
#X obj 558 153 s \$0-trigger;
#N canvas 559 110 615 324 I_dont_need_to_see_this_now 0;
#X obj 113 88 tabwrite~ noise;
#X obj 226 88 tabwrite~ line;
#X obj 334 89 tabwrite~ noise_and_line;
#X obj 18 38 r \$0-trigger;
#X msg 230 181 \; line resize \$1 \; noise resize \$1 \; noise_and_line
resize \$1;
#X msg 230 160 5000;
#X obj 114 36 inlet~;
#X obj 226 35 inlet~;
#X obj 333 47 inlet~;
#X connect 3 0 1 0;
#X connect 3 0 0 0;
#X connect 3 0 2 0;
#X connect 5 0 4 0;
#X connect 6 0 0 0;
#X connect 7 0 1 0;
#X connect 8 0 2 0;
#X restore 355 331 pd I_dont_need_to_see_this_now;
#N canvas 0 22 450 300 (subpatch) 0;
#X array noise_and_line 5000 float 0;
#X coords 0 1 4999 -1 200 80 1;
#X restore 692 307 graph;
#X obj 459 224 *~;
#X obj 457 247 *~;
#X obj 35 526 *~ 0.05;
#X msg 467 173 0.95 \, 0 150;
#N canvas 575 295 450 300 hide_this 0;
#X restore 385 498 pd hide_this;
#X connect 0 0 19 0;
#X connect 1 0 19 1;
#X connect 2 0 3 0;
#X connect 2 0 4 0;
#X connect 3 0 2 1;
#X connect 4 0 5 0;
#X connect 5 0 6 0;
#X connect 6 0 7 0;
#X connect 7 0 11 0;
#X connect 7 1 9 0;
#X connect 7 2 8 0;
#X connect 7 3 10 0;
#X connect 7 3 40 0;
#X connect 8 0 16 0;
#X connect 9 0 16 0;
#X connect 10 0 16 0;
#X connect 11 0 16 0;
#X connect 12 0 11 1;
#X connect 13 0 9 1;
#X connect 14 0 8 1;
#X connect 15 0 10 1;
#X connect 16 0 20 0;
#X connect 18 0 30 0;
#X connect 19 0 2 0;
#X connect 20 0 18 0;
#X connect 21 0 18 0;
#X connect 22 0 21 0;
#X connect 23 0 29 0;
#X connect 24 0 25 0;
#X connect 25 0 27 0;
#X connect 27 0 23 0;
#X connect 28 0 27 0;
#X connect 29 0 30 1;
#X connect 30 0 48 0;
#X connect 31 0 21 0;
#X connect 32 0 34 0;
#X connect 32 0 44 0;
#X connect 33 0 46 0;
#X connect 33 0 46 1;
#X connect 34 0 41 0;
#X connect 36 0 35 0;
#X connect 36 0 35 1;
#X connect 37 0 36 1;
#X connect 40 0 43 0;
#X connect 40 0 49 0;
#X connect 41 0 36 0;
#X connect 41 0 44 2;
#X connect 42 0 41 1;
#X connect 46 0 47 0;
#X connect 46 0 47 1;
#X connect 47 0 34 1;
#X connect 47 0 44 1;
#X connect 48 0 17 0;
#X connect 48 0 17 1;
#X connect 49 0 33 0;
